Coordinates
version=1
nRows=14
nColumns=46
inDegrees=yes

Units are S.I. units (second, meters, Newtons, ...)
Angles are in degrees.

endheader
time	pelvis_tilt	pelvis_list	pelvis_rotation	pelvis_tx	pelvis_ty	pelvis_tz	bb_angle	bb_tx	bb_ty	bb_tz	hip_flexion_r	hip_adduction_r	hip_rotation_r	knee_angle_r	knee_angle_r_beta	ankle_angle_r	subtalar_angle_r	mtp_angle_r	crank_angle_r	hip_flexion_l	hip_adduction_l	hip_rotation_l	knee_angle_l	knee_angle_l_beta	ankle_angle_l	subtalar_angle_l	mtp_angle_l	crank_angle_l	lumbar_extension	lumbar_bending	lumbar_rotation	arm_flex_r	arm_add_r	arm_rot_r	elbow_flex_r	pro_sup_r	wrist_flex_r	wrist_dev_r	arm_flex_l	arm_add_l	arm_rot_l	elbow_flex_l	pro_sup_l	wrist_flex_l	wrist_dev_l
      2.50500000	    -24.97446166	     -6.70944800	    -16.30247602	      0.33079851	      1.11051147	     -0.29543104	      0.00000000	      0.50000000	      0.00000000	      0.25000000	     80.06508744	      8.24951342	     -3.91409452	     93.87568095	      1.63843972	     25.37919138	      0.27604725	      0.00000000	      0.00000000	     34.93018674	    -21.13788233	     -8.24923016	     37.83245432	      0.66030089	    -27.65791497	     -3.19545735	      0.00000000	      0.00000000	    -61.34316641	      1.74775218	      9.85558832	     82.82145088	      0.86910249	     33.76025145	     41.90834728	     43.18817258	      0.00000000	      0.00000000	     60.59006070	    -23.74674363	     14.19367424	     64.35994598	     44.36308059	      0.00000000	      0.00000000
      2.51000000	    -24.80209172	     -6.43579422	    -16.23279217	      0.33032739	      1.11114389	     -0.29587439	      0.00000000	      0.50000000	      0.00000000	      0.25000000	     79.51607062	      8.21220788	     -3.71273013	     92.53589130	      1.61505598	     25.31605584	     -0.20786918	      0.00000000	      0.00000000	     35.43823141	    -20.75494638	     -7.70824377	     39.47454316	      0.68896075	    -27.55470345	     -3.59571490	      0.00000000	      0.00000000	    -61.63419957	      1.76815548	      9.62597437	     82.64195185	      1.31228087	     32.73234371	     42.73375663	     43.18739467	      0.00000000	      0.00000000	     60.68584001	    -23.69885118	     13.92613205	     64.38740458	     44.35857110	      0.00000000	      0.00000000
      2.51500000	    -24.56550011	     -6.18999368	    -16.16595811	      0.32980120	      1.11167959	     -0.29639938	      0.00000000	      0.50000000	      0.00000000	      0.25000000	     78.92524560	      8.19447066	     -3.51143003	     91.20104685	      1.59175855	     25.08969415	     -0.84857756	      0.00000000	      0.00000000	     35.97431658	    -20.40730155	     -7.19511736	     41.27479173	      0.72038101	    -27.41862321	     -4.14094784	      0.00000000	      0.00000000	    -61.95516975	      1.82021840	      9.40605042	     82.52123332	      1.74371605	     31.75115027	     43.33285105	     43.14341857	      0.00000000	      0.00000000	     60.79222384	    -23.68742020	     13.74626881	     64.24335769	     44.33468884	      0.00000000	      0.00000000
      2.52000000	    -24.27799843	     -5.85067887	    -16.07549074	      0.32943865	      1.11228421	     -0.29675782	      0.00000000	      0.50000000	      0.00000000	      0.25000000	     78.31329744	      8.12429336	     -3.16794575	     89.88735092	      1.56883023	     24.76597982	     -1.15234508	      0.00000000	      0.00000000	     36.42825897	    -19.91383181	     -6.63924997	     43.00937379	      0.75065518	    -27.30529173	     -4.70552574	      0.00000000	      0.00000000	    -62.34621876	      1.73660340	      9.16055618	     82.12845513	      2.04537486	     30.12364519	     44.85690580	     43.20834777	      0.00000000	      0.00000000	     60.90121070	    -23.47234697	     13.17086786	     64.55485876	     44.33539698	      0.00000000	      0.00000000
      2.52500000	    -24.12550669	     -5.61791318	    -15.89264449	      0.32898742	      1.11248440	     -0.29728609	      0.00000000	      0.50000000	      0.00000000	      0.25000000	     77.82705698	      7.98051365	     -2.96171706	     88.55648564	      1.54560225	     24.36158790	     -1.44595730	      0.00000000	      0.00000000	     37.18782624	    -19.51260352	     -5.97070226	     44.95677908	      0.78464382	    -27.04102470	     -5.12900147	      0.00000000	      0.00000000	    -62.50277962	      1.96680617	      8.89655915	     82.22957104	      2.76339391	     29.64978498	     44.33738835	     43.04222166	      0.00000000	      0.00000000	     61.03839472	    -23.58874874	     13.51828294	     63.77875290	     44.26440962	      0.00000000	      0.00000000
      2.53000000	    -23.92004797	     -5.31440590	    -15.71197613	      0.32863493	      1.11263979	     -0.29775597	      0.00000000	      0.50000000	      0.00000000	      0.25000000	     77.26508128	      7.84348473	     -2.65793510	     87.21776829	      1.52223722	     23.83231248	     -1.95718933	      0.00000000	      0.00000000	     37.85616287	    -19.02239351	     -5.36776315	     46.85505770	      0.81777503	    -26.76344317	     -5.51198321	      0.00000000	      0.00000000	    -62.75078725	      2.08048344	      8.59445409	     82.12703296	      3.26911465	     28.84701636	     44.77647478	     43.04557511	      0.00000000	      0.00000000	     61.05064197	    -23.67440474	     13.46669813	     63.89156595	     44.30148938	      0.00000000	      0.00000000
      2.53500000	    -23.66097976	     -5.01864724	    -15.51240990	      0.32841490	      1.11271040	     -0.29819413	      0.00000000	      0.50000000	      0.00000000	      0.25000000	     76.63717851	      7.70626650	     -2.30742551	     85.89104054	      1.49908146	     23.22384648	     -2.38408961	      0.00000000	      0.00000000	     38.47861894	    -18.52233997	     -4.83265475	     48.78033334	      0.85137743	    -26.54258418	     -5.94504892	      0.00000000	      0.00000000	    -63.10628415	      2.18117564	      8.42234302	     81.54606315	      3.54245486	     27.20451181	     46.91415783	     43.23792291	      0.00000000	      0.00000000	     60.86038982	    -23.41835388	     12.67233096	     64.62334303	     44.33824388	      0.00000000	      0.00000000
      2.54000000	    -23.48321482	     -4.68585655	    -15.25226821	      0.32796742	      1.11246672	     -0.29871356	      0.00000000	      0.50000000	      0.00000000	      0.25000000	     76.05775596	      7.53041903	     -1.93991841	     84.54324973	      1.47555807	     22.72959496	     -2.80445022	      0.00000000	      0.00000000	     39.26314807	    -17.95717427	     -4.20963477	     50.77314760	      0.88615860	    -26.08613621	     -6.07876808	      0.00000000	      0.00000000	    -63.17212766	      2.39060051	      8.10476119	     81.63096502	      4.23659504	     26.60198595	     46.02764568	     43.00531154	      0.00000000	      0.00000000	     61.21052565	    -23.53504470	     13.49627922	     63.53954404	     44.25823912	      0.00000000	      0.00000000
      2.54500000	    -23.29861020	     -4.35935033	    -14.98337286	      0.32772208	      1.11202007	     -0.29912778	      0.00000000	      0.50000000	      0.00000000	      0.25000000	     75.47528105	      7.33936758	     -1.56154302	     83.23560719	      1.45273540	     22.20790040	     -3.10444023	      0.00000000	      0.00000000	     40.03703083	    -17.42584060	     -3.73650474	     52.78424011	      0.92125878	    -25.76372802	     -6.36205028	      0.00000000	      0.00000000	    -63.28175777	      2.57983230	      7.82494787	     81.31031213	      4.67305748	     25.54940112	     46.63959727	     43.00710927	      0.00000000	      0.00000000	     61.25652498	    -23.55845127	     13.68652855	     63.26975502	     44.24808533	      0.00000000	      0.00000000
      2.55000000	    -22.99580254	     -4.08672772	    -14.57008179	      0.32750583	      1.11158270	     -0.29959423	      0.00000000	      0.50000000	      0.00000000	      0.25000000	     74.77559513	      7.06965220	     -1.19113760	     81.92945512	      1.42993875	     21.45287891	     -3.67272733	      0.00000000	      0.00000000	     40.70685448	    -16.82889490	     -3.15243726	     54.74807236	      0.95553412	    -25.42792398	     -6.62298205	      0.00000000	      0.00000000	    -63.52376624	      2.90068687	      7.48099132	     81.21801433	      4.92787105	     25.38122518	     46.96650058	     43.04960052	      0.00000000	      0.00000000	     61.31236533	    -23.67280843	     13.76968895	     63.21147752	     44.25163473	      0.00000000	      0.00000000
      2.55500000	    -22.70059829	     -3.79204103	    -14.12504491	      0.32727964	      1.11087503	     -0.30015473	      0.00000000	      0.50000000	      0.00000000	      0.25000000	     74.10813772	      6.75531014	     -0.81833672	     80.67822234	      1.40810061	     20.66210299	     -4.26993035	      0.00000000	      0.00000000	     41.41477494	    -16.21456030	     -2.63561651	     56.73231584	      0.99016570	    -25.15018285	     -6.87351796	      0.00000000	      0.00000000	    -63.70119342	      3.24744910	      7.09827849	     81.01304278	      5.21078576	     25.04432182	     47.36048045	     43.08350523	      0.00000000	      0.00000000	     61.31248519	    -23.77203203	     13.92331743	     63.09432119	     44.25314728	      0.00000000	      0.00000000
      2.56000000	    -22.34564181	     -3.55574180	    -13.48990043	      0.32681208	      1.10998867	     -0.30083032	      0.00000000	      0.50000000	      0.00000000	      0.25000000	     73.39103587	      6.32245811	     -0.51054384	     79.47065249	      1.38702454	     19.75754421	     -4.99016945	      0.00000000	      0.00000000	     42.16492433	    -15.53120407	     -1.96227017	     58.74696176	      1.02532791	    -24.91442647	     -7.09366793	      0.00000000	      0.00000000	    -63.92335297	      3.78252057	      6.72100443	     80.78891924	      5.56917326	     24.44886805	     47.88167025	     43.10856442	      0.00000000	      0.00000000	     61.39569732	    -23.95424853	     14.21162229	     62.91253446	     44.25865162	      0.00000000	      0.00000000
      2.56500000	    -21.88574289	     -3.14129791	    -13.12849505	      0.32683121	      1.10901675	     -0.30117324	      0.00000000	      0.50000000	      0.00000000	      0.25000000	     72.64851397	      5.98749628	      0.02721396	     78.39611650	      1.36827035	     18.97243673	     -5.11291988	      0.00000000	      0.00000000	     42.60900715	    -14.92272217	     -1.81618885	     60.65225239	      1.05858150	    -24.68911203	     -7.31986055	      0.00000000	      0.00000000	    -64.13328346	      3.91257571	      6.30512061	     80.58410472	      5.67513106	     24.27348669	     48.02767948	     43.11640987	      0.00000000	      0.00000000	     61.36986445	    -23.87193410	     14.35360450	     62.85108882	     44.26463281	      0.00000000	      0.00000000
      2.57000000	    -21.52320654	     -2.79802742	    -12.61445931	      0.32668517	      1.10778476	     -0.30182294	      0.00000000	      0.50000000	      0.00000000	      0.25000000	     71.94770213	      5.55445205	      0.43226887	     77.31083288	      1.34932858	     18.12699485	     -5.57319364	      0.00000000	      0.00000000	     43.24486493	    -14.25365357	     -1.43609299	     62.62600021	      1.09302990	    -24.28940114	     -7.60781208	      0.00000000	      0.00000000	    -64.29395682	      4.25144299	      5.88176961	     80.39992360	      5.86859385	     24.02377248	     48.28976803	     43.13557122	      0.00000000	      0.00000000	     61.38992048	    -23.91537295	     14.51857044	     62.73129004	     44.26375681	      0.00000000	      0.00000000
